<?xml version="1.0" encoding="utf-8"?>
<!-- Generator: Adobe Illustrator 24.0.2, SVG Export Plug-In . SVG Version: 6.00 Build 0)  -->
<svg version="1.1" id="Слой_1" xmlns="http://www.w3.org/2000/svg" xmlns:xlink="http://www.w3.org/1999/xlink" x="0px" y="0px"
	 viewBox="0 0 25 25" style="enable-background:new 0 0 25 25;" xml:space="preserve">
<style type="text/css">
	.st0{fill:#020203;}
</style>
<path class="st0" d="M24.4,21.7c0.5,0.5,0.7,1.2,0.5,1.8c-0.2,0.7-0.7,1.2-1.4,1.4c-0.7,0.2-1.4,0-1.8-0.5l-9.2-9.2l-9.2,9.2
	c-0.5,0.5-1.2,0.7-1.8,0.5c-0.7-0.2-1.2-0.7-1.4-1.4c-0.2-0.7,0-1.4,0.5-1.8l9.2-9.2L0.6,3.3C0.1,2.8-0.1,2.1,0.1,1.4
	c0.2-0.7,0.7-1.2,1.4-1.4c0.7-0.2,1.4,0,1.8,0.5l9.2,9.2l9.2-9.2c0.5-0.5,1.2-0.7,1.8-0.5c0.7,0.2,1.2,0.7,1.4,1.4
	c0.2,0.7,0,1.4-0.5,1.8l-9.2,9.2L24.4,21.7z"/>
</svg>
