<?xml version="1.0" encoding="utf-8"?>
<!-- Generator: Adobe Illustrator 24.0.2, SVG Export Plug-In . SVG Version: 6.00 Build 0)  -->
<svg version="1.1" id="Слой_1" xmlns="http://www.w3.org/2000/svg" xmlns:xlink="http://www.w3.org/1999/xlink" x="0px" y="0px"
	 viewBox="0 0 25 25" style="enable-background:new 0 0 25 25;" xml:space="preserve">
<style type="text/css">
	.st0{fill:#020203;}
</style>
<path class="st0" d="M23.5,3.6c-0.4,0-0.7,0.2-1,0.5L8.8,17.8l-6.3-6.3C2.3,11.2,1.9,11,1.5,11s-0.8,0.1-1.1,0.4
	C0.2,11.7,0,12.1,0,12.5c0,0.4,0.2,0.8,0.5,1.1L7.8,21c0.3,0.3,0.7,0.4,1.1,0.4c0.4,0,0.8-0.2,1.1-0.4L24.6,6.1
	C24.8,5.9,25,5.5,25,5.1c0-0.4-0.2-0.8-0.5-1.1C24.3,3.7,23.9,3.6,23.5,3.6L23.5,3.6z"/>
</svg>
